<svg width="26" height="26" viewBox="0 0 26 26" fill="none" xmlns="http://www.w3.org/2000/svg">
<path d="M19.1285 18.0451L14.5319 22.6417C14.3309 22.8429 14.0922 23.0025 13.8294 23.1114C13.5667 23.2203 13.285 23.2764 13.0006 23.2764C12.7162 23.2764 12.4345 23.2203 12.1718 23.1114C11.909 23.0025 11.6703 22.8429 11.4693 22.6417L6.87163 18.0451C5.65962 16.833 4.83424 15.2887 4.49987 13.6076C4.1655 11.9264 4.33716 10.1839 4.99313 8.60028C5.6491 7.01668 6.75993 5.66316 8.18515 4.71087C9.61037 3.75858 11.286 3.25031 13 3.25031C14.7141 3.25031 16.3897 3.75858 17.8149 4.71087C19.2402 5.66316 20.351 7.01668 21.007 8.60028C21.6629 10.1839 21.8346 11.9264 21.5002 13.6076C21.1658 15.2887 20.3405 16.833 19.1285 18.0451V18.0451Z" stroke="#403FF2" stroke-width="2" stroke-linecap="round" stroke-linejoin="round"/>
<path d="M15.2981 14.2148C15.9076 13.6053 16.25 12.7786 16.25 11.9167C16.25 11.0547 15.9076 10.2281 15.2981 9.61856C14.6886 9.00907 13.862 8.66666 13 8.66666C12.138 8.66666 11.3114 9.00907 10.7019 9.61856C10.0924 10.2281 9.75 11.0547 9.75 11.9167C9.75 12.7786 10.0924 13.6053 10.7019 14.2148C11.3114 14.8242 12.138 15.1667 13 15.1667C13.862 15.1667 14.6886 14.8242 15.2981 14.2148Z" stroke="#403FF2" stroke-width="2" stroke-linecap="round" stroke-linejoin="round"/>
</svg>
