<svg width="22" height="22" viewBox="0 0 22 22" fill="none" xmlns="http://www.w3.org/2000/svg">
<path d="M20.75 20.75L14.25 14.25M16.4167 8.83333C16.4167 9.82919 16.2205 10.8153 15.8394 11.7354C15.4583 12.6554 14.8997 13.4914 14.1956 14.1956C13.4914 14.8997 12.6554 15.4583 11.7354 15.8394C10.8153 16.2205 9.82919 16.4167 8.83333 16.4167C7.83748 16.4167 6.85137 16.2205 5.93132 15.8394C5.01127 15.4583 4.17528 14.8997 3.47111 14.1956C2.76693 13.4914 2.20835 12.6554 1.82725 11.7354C1.44615 10.8153 1.25 9.82919 1.25 8.83333C1.25 6.82211 2.04896 4.89326 3.47111 3.47111C4.89326 2.04896 6.82211 1.25 8.83333 1.25C10.8446 1.25 12.7734 2.04896 14.1956 3.47111C15.6177 4.89326 16.4167 6.82211 16.4167 8.83333Z" stroke="#403FF2" stroke-width="2" stroke-linecap="round" stroke-linejoin="round"/>
</svg>
